<svg width="107" height="124" viewBox="0 0 107 124" fill="none" xmlns="http://www.w3.org/2000/svg">
<path d="M0.757812 23.2734L6.48047 28H14.4883L17.125 25.793L17.9258 28H27.2422V21.8867L24.1953 21.0859V4.5625L18.7656 -0.0078125H6.51953L1.07031 4.5625V9.83594H8.55078L9.35156 6.92578H14.918L15.9531 7.72656V10.4023L5.44531 12.043L0.757812 15.6758V23.2734ZM9.07812 20.2852V18.8008L9.83984 18.1172L15.9531 16.7109V20.2852L14.918 21.125H10.0742L9.07812 20.2852ZM29.7812 28H42.9062V21.8867L41.0703 21.0859V7.72656L42.1055 6.88672H46.9492L47.9453 7.72656V21.0859L46.1094 21.8867V28H59.3125V21.8867L56.2656 21.0859V4.71875L50.543 -0.0078125H42.1055L39.4688 2.19922L38.668 -0.0078125H29.7812V6.125L32.8281 6.92578V21.0859L29.7812 21.8867V28ZM60.6992 11.5547H66.6172L67.418 6.47656H70.5039V21.125L67.0859 21.9258V28H82.2227V21.9258L78.7852 21.125V6.47656H81.8516L82.6523 11.5547H88.5312V-0.0078125H60.6992V11.5547ZM91.9102 28H106.227V21.9258L103.199 21.125V6.92578L106.227 6.125V-0.0078125H91.9102V6.125L94.957 6.92578V21.125L91.9102 21.9258V28ZM0.889648 60.2471L7.81836 66H19.7231C20.731 65.1742 21.7458 64.3413 22.7676 63.5015C23.8034 62.6476 24.8252 61.7868 25.833 60.9189V55.46H17.7915L16.9307 58.6094H11.0308L9.75 57.5806V44.332L10.9888 43.3452H16.9307L17.7915 46.4736H25.833V40.8047L19.9751 35.8916H7.56641L0.889648 41.4556V60.2471ZM29.6963 60.9189L35.8481 66H44.4565L47.291 63.6274L48.1519 66H58.167V59.4282L54.8916 58.5674V40.8047L49.0547 35.8916H35.8901L30.0322 40.8047V46.4736H38.0737L38.9346 43.3452H44.9185L46.0312 44.2061V47.0825L34.7354 48.8462L29.6963 52.7515V60.9189ZM38.6406 57.7065V56.1108L39.4595 55.376L46.0312 53.8643V57.7065L44.9185 58.6094H39.7114L38.6406 57.7065ZM60.7285 60.9189L66.8384 66H79.772L85.9238 60.9189V52.3315L80.8848 48.4053L70.5337 46.6836L69.5889 45.9697V44.2061L70.7017 43.3452H76.6855L77.5464 46.4736H85.5879V40.8047L79.73 35.8916H66.5654L60.7285 40.8047V49.0142L65.8516 53.2344L76.1606 54.9561L76.9795 55.6699V57.7065L75.9087 58.6094H69.6309L68.77 55.46H60.7285V60.9189ZM90.606 66H105.996V59.4702L102.742 58.6094V43.3452L105.996 42.4844V35.8916H90.606V42.4844L93.8813 43.3452V58.6094L90.606 59.4702V66ZM2.20801 124H26.0898V112.915L20.5293 111.453V95.52L37.3892 124H52.146V85.5396L57.7065 84.0781V72.8857H33.7534V84.0781L39.2783 85.5396V100.189L24.1294 72.8857H2.20801V84.0781L7.76855 85.5396V111.453L2.20801 112.915V124ZM63.1602 114.875L74.1743 124H95.062C96.9155 122.503 98.7572 120.982 100.587 119.438C102.44 117.893 104.294 116.372 106.147 114.875V81.7969L95.4897 72.8857H73.8179L63.1602 81.7969V114.875ZM78.2021 109.778V87.0723L80.1626 85.5396H89.145L91.1055 87.0723V109.778L89.0737 111.453H80.2339L78.2021 109.778Z" fill="black"/>
</svg>
